<svg xmlns="http://www.w3.org/2000/svg" xmlns:xlink="http://www.w3.org/1999/xlink" viewBox="0 0 407 407">
  <defs>
    <style>
      .a {
        fill: url(#a);
      }

      .b {
        stroke-miterlimit: 10;
        stroke-width: 3px;
        fill: url(#b);
        stroke: url(#c);
      }

      .c {
        fill: url(#d);
      }
    </style>
    <linearGradient id="a" data-name="Ikke-navngivet forløb 37" x1="203.5" y1="407" x2="203.5" gradientUnits="userSpaceOnUse">
      <stop offset="0" stop-color="#211a52"/>
      <stop offset="1" stop-color="#2058e3"/>
    </linearGradient>
    <linearGradient id="b" data-name="Ikke-navngivet forløb 71" x1="324.06" y1="324.06" x2="82.94" y2="82.94" gradientUnits="userSpaceOnUse">
      <stop offset="0" stop-color="#ccc"/>
      <stop offset="0.62" stop-color="#efefef"/>
      <stop offset="1" stop-color="#fff"/>
    </linearGradient>
    <linearGradient id="c" x1="81.88" y1="81.88" x2="325.12" y2="325.12" xlink:href="#b"/>
    <linearGradient id="d" x1="251.76" y1="269.17" x2="251.76" y2="195.55" xlink:href="#a"/>
  </defs>
  <title>AppKnap2</title>
  <circle class="a" cx="203.5" cy="203.5" r="203.5"/>
  <circle class="b" cx="203.5" cy="203.5" r="170.5"/>
  <g>
    <path class="c" d="M167.1,268.4V195.5h18.1q6.6,0,10.5,2.4a13.9,13.9,0,0,1,5.7,6.9,29.3,29.3,0,0,1,1.8,10.9,23.8,23.8,0,0,1-2,10,15.1,15.1,0,0,1-6,6.5c-2.6,1.6-5.9,2.3-9.9,2.3h-8v33.9Zm10.2-41.2H182a18.6,18.6,0,0,0,6.9-1,6,6,0,0,0,3.6-3.4,18.6,18.6,0,0,0,1.1-7,31.7,31.7,0,0,0-.8-8,5.6,5.6,0,0,0-3.2-3.9,19.7,19.7,0,0,0-7.5-1.1h-4.8Z" transform="translate(-49 -47)"/>
    <path class="c" d="M209.8,268.4v-52h9.6v7.4c1.9-3.2,3.8-5.3,5.8-6.4a11.2,11.2,0,0,1,5.7-1.6h1.6v10.6l-2.5-.8a13.6,13.6,0,0,0-2.9-.3,7.7,7.7,0,0,0-4,1.1,10.4,10.4,0,0,0-3.7,4v37.9Z" transform="translate(-49 -47)"/>
    <path class="c" d="M252.8,269.2c-4.1,0-7.2-.8-9.5-2.4a12.6,12.6,0,0,1-4.6-7,41.6,41.6,0,0,1-1.3-11.4V236.5a41,41,0,0,1,1.4-11.5,12.2,12.2,0,0,1,4.7-7c2.2-1.5,5.3-2.3,9.3-2.3s7.6.9,9.7,2.7a14,14,0,0,1,4.1,7.8,70.6,70.6,0,0,1,1,12.2v4.2H247v10.5a17.8,17.8,0,0,0,.6,5.1,5.1,5.1,0,0,0,1.9,2.9,6,6,0,0,0,3.4,1,4.9,4.9,0,0,0,3.3-1.1,6.2,6.2,0,0,0,1.5-2.9,20.7,20.7,0,0,0,.4-4.6v-3.1h9.4v1.9c0,5.3-1.1,9.4-3.4,12.4S258.1,269.2,252.8,269.2ZM247,237.4h11.1v-4.7a27.7,27.7,0,0,0-.4-5.4,6.3,6.3,0,0,0-1.4-3.4,5.3,5.3,0,0,0-3.6-1.1,5.1,5.1,0,0,0-3.5,1.1,5.6,5.6,0,0,0-1.7,3.6,43.4,43.4,0,0,0-.5,7.1Z" transform="translate(-49 -47)"/>
    <path class="c" d="M288.3,269.2a13.9,13.9,0,0,1-10.2-4,16.3,16.3,0,0,1-4.4-10.6l8-2.4a18.8,18.8,0,0,0,2.4,7.4,6,6,0,0,0,5.1,2.5,5,5,0,0,0,3.9-1.5,5.7,5.7,0,0,0,1.4-4,9.2,9.2,0,0,0-1-4.1,15.4,15.4,0,0,0-3.3-3.7l-8.9-7.6a24.4,24.4,0,0,1-4.5-5.2,14.4,14.4,0,0,1-1.9-7.5,13.7,13.7,0,0,1,1.7-7,10.9,10.9,0,0,1,4.7-4.3,15.4,15.4,0,0,1,7-1.5c4.2,0,7.4,1.3,9.5,4a17.1,17.1,0,0,1,3.8,9.7l-6.5,2.4a19.1,19.1,0,0,0-1.1-4.7,7.3,7.3,0,0,0-2-3.2,4.9,4.9,0,0,0-3.3-1.1,4.4,4.4,0,0,0-3.7,1.6,5,5,0,0,0-1.4,3.7,6.6,6.6,0,0,0,.6,2.7,6.5,6.5,0,0,0,2,2.5l9.2,8.5a41.2,41.2,0,0,1,3.5,3.7,20.2,20.2,0,0,1,2.8,4.5,15,15,0,0,1,1,5.8,14,14,0,0,1-1.8,7.4,10.9,10.9,0,0,1-5,4.5A18.1,18.1,0,0,1,288.3,269.2Z" transform="translate(-49 -47)"/>
    <path class="c" d="M322,269.2a13.9,13.9,0,0,1-10.3-4,17.4,17.4,0,0,1-4.4-10.6l8-2.4a17.3,17.3,0,0,0,2.5,7.4,5.8,5.8,0,0,0,5,2.5,5.1,5.1,0,0,0,4-1.5,5.7,5.7,0,0,0,1.3-4,8,8,0,0,0-1-4.1,12.9,12.9,0,0,0-3.2-3.7l-8.9-7.6a28.1,28.1,0,0,1-4.6-5.2,14.4,14.4,0,0,1-1.8-7.5,13.7,13.7,0,0,1,1.7-7,10.6,10.6,0,0,1,4.6-4.3,16.1,16.1,0,0,1,7.1-1.5c4.1,0,7.3,1.3,9.5,4a17,17,0,0,1,3.7,9.7l-6.4,2.4a25.1,25.1,0,0,0-1.1-4.7,8.4,8.4,0,0,0-2-3.2,5,5,0,0,0-3.3-1.1,4.8,4.8,0,0,0-3.8,1.6,5.5,5.5,0,0,0-1.4,3.7,6.6,6.6,0,0,0,.6,2.7,7.6,7.6,0,0,0,2,2.5l9.2,8.5a31.5,31.5,0,0,1,3.6,3.7,16.8,16.8,0,0,1,2.7,4.5,15,15,0,0,1,1.1,5.8,14,14,0,0,1-1.8,7.4,11.5,11.5,0,0,1-5,4.5A18.1,18.1,0,0,1,322,269.2Z" transform="translate(-49 -47)"/>
  </g>
</svg>
