<svg id="Layer_1" data-name="Layer 1" xmlns="http://www.w3.org/2000/svg" xmlns:xlink="http://www.w3.org/1999/xlink" viewBox="0 0 407 407">
  <defs>
    <linearGradient id="Ikke-navngivet_forløb_37" data-name="Ikke-navngivet forløb 37" x1="203.5" y1="407" x2="203.5" gradientUnits="userSpaceOnUse">
      <stop offset="0" stop-color="#211a52"/>
      <stop offset="1" stop-color="#2058e3"/>
    </linearGradient>
    <linearGradient id="Ikke-navngivet_forløb_71" data-name="Ikke-navngivet forløb 71" x1="324.06" y1="324.06" x2="82.94" y2="82.94" gradientUnits="userSpaceOnUse">
      <stop offset="0" stop-color="#ccc"/>
      <stop offset="0.62" stop-color="#efefef"/>
      <stop offset="1" stop-color="#fff"/>
    </linearGradient>
    <linearGradient id="Ikke-navngivet_forløb_71-2" x1="81.88" y1="81.88" x2="325.12" y2="325.12" xlink:href="#Ikke-navngivet_forløb_71"/>
    <linearGradient id="Ikke-navngivet_forløb_37-2" x1="258.87" y1="268.24" x2="258.87" y2="210.01" xlink:href="#Ikke-navngivet_forløb_37"/>
  </defs>
  <title>AppKnapFont1</title>
  <circle id="Blue_circle" data-name="Blue circle" cx="203.5" cy="203.5" r="203.5" fill="url(#Ikke-navngivet_forløb_37)"/>
  <circle id="White_circle" data-name="White circle" cx="203.5" cy="203.5" r="170.5" stroke-miterlimit="10" stroke-width="3" fill="url(#Ikke-navngivet_forløb_71)" stroke="url(#Ikke-navngivet_forløb_71-2)"/>
  <g>
    <path d="M180.1,227.6a19.3,19.3,0,0,1-1.3,7,17.7,17.7,0,0,1-4.1,6.1,20.9,20.9,0,0,1-7.1,4.4,26.8,26.8,0,0,1-10.3,1.7h-7.1v20.6h-7.8V210h16.2a31,31,0,0,1,8.1,1,19.6,19.6,0,0,1,6.9,3,14,14,0,0,1,4.7,5.5A16.7,16.7,0,0,1,180.1,227.6Zm-8.1.3c0-3.6-1.2-6.5-3.7-8.4s-5.8-3-10.1-3h-8v23.7h7.3c4.6,0,8.2-1.1,10.7-3.1S172,232,172,227.9Z" transform="translate(-49 -47)" fill="url(#Ikke-navngivet_forløb_37-2)"/>
    <path d="M193.8,223.3h7l.2,8.2a28.2,28.2,0,0,1,7.7-6.9,15.7,15.7,0,0,1,7.7-2.1c4.5,0,8,1.5,10.3,4.5s3.5,7.3,3.3,13.2h-7.7c.1-3.9-.5-6.7-1.7-8.5a6.1,6.1,0,0,0-5.3-2.6,8.1,8.1,0,0,0-3.1.6,10.4,10.4,0,0,0-3.3,1.7,30.9,30.9,0,0,0-3.4,3.1,48.9,48.9,0,0,0-4,4.6v28.3h-7.7Z" transform="translate(-49 -47)" fill="url(#Ikke-navngivet_forløb_37-2)"/>
    <path d="M278.7,243.1v2.7c-.1.7-.1,1.4-.2,2H247.6c0,4.6,1.2,8,3.7,10.4s6.2,3.7,10.9,3.7l3.9-.2,3.7-.4,3.5-.6,3-.7v6.3c-2,.5-4.4,1-7,1.4a54.7,54.7,0,0,1-8.2.5,28.2,28.2,0,0,1-9.7-1.5,15.9,15.9,0,0,1-6.7-4.5,16.9,16.9,0,0,1-3.9-7.1,35,35,0,0,1-1.2-9.6,28,28,0,0,1,1.3-8.8,22.2,22.2,0,0,1,3.9-7.3,18.2,18.2,0,0,1,6.3-5,19.3,19.3,0,0,1,8.5-1.9,21,21,0,0,1,8.2,1.5,17.8,17.8,0,0,1,6,4.1,18.7,18.7,0,0,1,3.7,6.5A27.7,27.7,0,0,1,278.7,243.1Zm-7.9-1.1a18.2,18.2,0,0,0-.6-5.4,12,12,0,0,0-2.2-4.2,10.4,10.4,0,0,0-3.7-2.8,12.9,12.9,0,0,0-5.1-1,11,11,0,0,0-4.5,1,12.2,12.2,0,0,0-3.6,2.7,13.7,13.7,0,0,0-2.4,4.3,17.8,17.8,0,0,0-1.1,5.4Z" transform="translate(-49 -47)" fill="url(#Ikke-navngivet_forløb_37-2)"/>
    <path d="M325.9,255.4a10.8,10.8,0,0,1-.8,4.2,14.6,14.6,0,0,1-2.2,3.3,15,15,0,0,1-3.1,2.4,23,23,0,0,1-3.9,1.7,31.5,31.5,0,0,1-4.2.9,29.7,29.7,0,0,1-4.2.3,69.3,69.3,0,0,1-8.2-.4,45.7,45.7,0,0,1-7.4-1.2v-7.1a53.1,53.1,0,0,0,7.7,1.7,48.7,48.7,0,0,0,7.6.6c3.6,0,6.4-.5,8.1-1.5a4.7,4.7,0,0,0,2.2-6.4,4,4,0,0,0-1.5-1.8,11.5,11.5,0,0,0-3.4-1.8q-2.2-.9-6.3-2.1a58.1,58.1,0,0,1-5.5-2,16.2,16.2,0,0,1-4.4-2.7,11.2,11.2,0,0,1-2.9-3.6,10.3,10.3,0,0,1-1-4.8,12.9,12.9,0,0,1,.8-4.1,13.4,13.4,0,0,1,2.9-4.1,17.4,17.4,0,0,1,5.6-3.1,27.7,27.7,0,0,1,8.8-1.3l5.8.3a55.7,55.7,0,0,1,6.6,1v6.8a63.8,63.8,0,0,0-6.9-1.3,39.7,39.7,0,0,0-5.6-.4,30.8,30.8,0,0,0-4.8.4,8.1,8.1,0,0,0-3.1,1.3,4.4,4.4,0,0,0-1.8,1.8,5.1,5.1,0,0,0-.5,2.2,3.6,3.6,0,0,0,.5,2.1,4.3,4.3,0,0,0,1.7,1.9,16,16,0,0,0,3.5,1.8c1.5.6,3.4,1.3,5.8,2a35.5,35.5,0,0,1,6.6,2.4,15.9,15.9,0,0,1,4.3,2.7,7.9,7.9,0,0,1,2.4,3.5A12.3,12.3,0,0,1,325.9,255.4Z" transform="translate(-49 -47)" fill="url(#Ikke-navngivet_forløb_37-2)"/>
    <path d="M375.3,255.4a10.9,10.9,0,0,1-.7,4.2,14.6,14.6,0,0,1-2.2,3.3,15.7,15.7,0,0,1-3.2,2.4,21.9,21.9,0,0,1-3.8,1.7,31.5,31.5,0,0,1-4.2.9,29.7,29.7,0,0,1-4.2.3,71,71,0,0,1-8.3-.4,44.5,44.5,0,0,1-7.3-1.2v-7.1a53.1,53.1,0,0,0,7.7,1.7,48.7,48.7,0,0,0,7.6.6q5.4,0,8.1-1.5a4.6,4.6,0,0,0,2.6-4.3,4.6,4.6,0,0,0-.4-2.1,6,6,0,0,0-1.5-1.8,13,13,0,0,0-3.4-1.8q-2.2-.9-6.3-2.1a58.1,58.1,0,0,1-5.5-2,14.8,14.8,0,0,1-4.4-2.7,11.2,11.2,0,0,1-2.9-3.6,10.3,10.3,0,0,1-1.1-4.8,10.9,10.9,0,0,1,.9-4.1,13.4,13.4,0,0,1,2.9-4.1,17.4,17.4,0,0,1,5.6-3.1,27.7,27.7,0,0,1,8.8-1.3l5.8.3a51.3,51.3,0,0,1,6.5,1v6.8a62.1,62.1,0,0,0-6.8-1.3,39.7,39.7,0,0,0-5.6-.4,30.8,30.8,0,0,0-4.8.4,8.6,8.6,0,0,0-3.2,1.3,4.2,4.2,0,0,0-1.7,1.8,4,4,0,0,0-.5,2.2,4.6,4.6,0,0,0,.4,2.1,5,5,0,0,0,1.7,1.9,18.7,18.7,0,0,0,3.5,1.8c1.5.6,3.5,1.3,5.9,2a35.5,35.5,0,0,1,6.6,2.4,15.9,15.9,0,0,1,4.3,2.7,10,10,0,0,1,2.4,3.5A12.3,12.3,0,0,1,375.3,255.4Z" transform="translate(-49 -47)" fill="url(#Ikke-navngivet_forløb_37-2)"/>
  </g>
</svg>
